<svg width="21" height="20" viewBox="0 0 21 20" fill="none" xmlns="http://www.w3.org/2000/svg">
<g id="Icon" clip-path="url(#clip0_32_6446)">
<path id="Vector" d="M4.93242 12.0862L4.23625 14.6852L1.69176 14.739C0.931328 13.3286 0.5 11.7148 0.5 10C0.5 8.34176 0.903281 6.77801 1.61812 5.40109H1.61867L3.88398 5.8164L4.87633 8.06812C4.66863 8.67363 4.55543 9.32363 4.55543 10C4.55551 10.7341 4.68848 11.4374 4.93242 12.0862Z" fill="#FBBC05"/>
<path id="Vector_2" d="M20.3253 8.13187C20.4401 8.73679 20.5 9.36152 20.5 9.99999C20.5 10.7159 20.4247 11.4143 20.2813 12.0879C19.7945 14.3802 18.5225 16.3819 16.7605 17.7984L16.7599 17.7978L13.9066 17.6522L13.5028 15.1313C14.672 14.4456 15.5858 13.3725 16.0671 12.0879H10.7198V8.13187H16.1451H20.3253Z" fill="#2563EB"/>
<path id="Vector_3" d="M16.7599 17.7978L16.7604 17.7984C15.0467 19.1758 12.8698 20 10.5 20C6.69177 20 3.3808 17.8714 1.69177 14.739L4.93244 12.0863C5.77693 14.3401 7.95111 15.9445 10.5 15.9445C11.5956 15.9445 12.622 15.6484 13.5027 15.1313L16.7599 17.7978Z" fill="#28B446"/>
<path id="Vector_4" d="M16.8829 2.30219L13.6434 4.95437C12.7319 4.38461 11.6544 4.05547 10.5 4.05547C7.89338 4.05547 5.67853 5.73348 4.87635 8.06812L1.61865 5.40109H1.6181C3.2824 2.1923 6.63513 0 10.5 0C12.9263 0 15.1511 0.864297 16.8829 2.30219Z" fill="#F14336"/>
</g>
<defs>
<clipPath id="clip0_32_6446">
<rect width="20" height="20" fill="white" transform="translate(0.5)"/>
</clipPath>
</defs>
</svg>
